<?xml version="1.0" encoding="iso-8859-1"?>
<!-- Generator: Adobe Illustrator 19.0.0, SVG Export Plug-In . SVG Version: 6.00 Build 0)  -->
<svg version="1.1" id="Layer_1" xmlns="http://www.w3.org/2000/svg" xmlns:xlink="http://www.w3.org/1999/xlink" x="0px" y="0px"
	 viewBox="0 0 473.654 473.654" style="enable-background:new 0 0 473.654 473.654;" xml:space="preserve">
<circle style="fill:#EDC92C;" cx="236.827" cy="236.827" r="236.827"/>
<path style="fill:#FFFFFF;" d="M392.307,193.946c-71.153,0-142.302,0-213.455,0c0-12.916,0-25.829,0-38.742
	c0-24.666-30.515-37.411-47.994-19.932c-27.011,27.007-54.018,54.022-81.029,81.033c-10.841,10.841-10.549,28.907,0.213,39.669
	c27.011,27.007,54.018,54.018,81.029,81.025c9.446,9.446,20.796,9.947,30.062,5.553c9.846-3.336,17.718-11.757,17.718-25.291
	c0-13.051,0-26.102,0-39.157c70.951,0,141.898,0,212.845,0C446.034,278.105,446.513,193.946,392.307,193.946z"/>
<g>
</g>
<g>
</g>
<g>
</g>
<g>
</g>
<g>
</g>
<g>
</g>
<g>
</g>
<g>
</g>
<g>
</g>
<g>
</g>
<g>
</g>
<g>
</g>
<g>
</g>
<g>
</g>
<g>
</g>
</svg>
