<svg width="1106" height="691" viewBox="0 0 1106 691" fill="none" xmlns="http://www.w3.org/2000/svg">
<path d="M316.377 361.048C310.849 381.279 326.285 399.677 326.389 400.051C326.494 400.426 343.141 422.202 345.141 433.799C347.184 445.645 347.102 449.354 341.415 467.106C337.624 478.94 336.297 496.438 337.435 519.6C397.458 484.41 440.223 472.155 465.73 482.836C503.99 498.858 536.853 574.727 538.311 574.221C549.407 570.372 561.406 570.213 574.304 574.221C580.799 576.239 587.523 581.479 594.475 589.941L520.166 614.99C476.193 554.222 452.863 525.018 450.177 527.376C448.289 529.033 457.698 519.238 425.983 543.299C394.267 567.359 347.013 569.222 330.361 574.221C326.146 575.486 311.357 581.473 302.385 580.659C297.803 580.244 282.8 579.242 276.698 564.301C275.463 561.278 274.248 557.719 273.038 553.526C270.6 543.98 270.949 535.264 274.084 527.376C274.258 527.877 274.258 527.24 274.084 525.466C269.86 482.353 271.002 454.709 279.956 424.997C282.02 418.148 282.974 411.059 286.318 403.776C291.143 397.271 292.78 397.108 295.509 387.966" fill="white"/>
<path d="M316.377 361.048C310.849 381.279 326.285 399.677 326.389 400.051C326.494 400.426 343.141 422.202 345.141 433.799C347.184 445.645 347.102 449.354 341.415 467.106C337.624 478.94 336.297 496.438 337.435 519.6C397.458 484.41 440.223 472.155 465.73 482.836C503.99 498.858 536.853 574.727 538.311 574.221C549.407 570.372 561.406 570.213 574.304 574.221C580.799 576.239 587.523 581.479 594.475 589.941L520.166 614.99C476.193 554.222 452.863 525.018 450.177 527.376C448.289 529.033 457.698 519.238 425.983 543.299C394.267 567.359 347.013 569.222 330.361 574.221C326.146 575.486 311.357 581.473 302.385 580.659C297.803 580.244 282.8 579.242 276.698 564.301C275.463 561.278 274.248 557.719 273.038 553.526C270.6 543.98 270.949 535.264 274.084 527.376C274.258 527.877 274.258 527.24 274.084 525.466C269.86 482.353 271.002 454.709 279.956 424.997C282.02 418.148 282.974 411.059 286.318 403.776C291.143 397.271 292.78 397.108 295.509 387.966" stroke="black" stroke-miterlimit="3" stroke-linecap="square"/>
<path d="M274.772 536.389C272.892 520.585 271.182 506.309 270.452 493.428C268.13 452.452 273.041 438.9 278.228 422.87C278.999 420.489 284.436 407.254 286.318 403.776C290.448 396.149 295.359 387.52 295.509 387.966C297.258 393.168 300.96 396.836 304.15 398.971C309.304 402.422 315.928 401.873 324.023 397.325C314.118 385.238 314.118 385.238 324.023 397.325C340.657 417.623 345.193 428.204 346.489 441.376C347.279 449.4 345.551 458.326 341.305 468.152L336.984 513.067L275.636 536.389" fill="#009688"/>
<path d="M274.772 536.389C272.892 520.585 271.182 506.309 270.452 493.428C268.13 452.452 273.041 438.9 278.228 422.87C278.999 420.489 284.436 407.254 286.318 403.776C290.448 396.149 295.359 387.52 295.509 387.966C297.258 393.168 300.96 396.836 304.15 398.971C309.304 402.422 315.928 401.873 324.023 397.325C314.118 385.238 314.118 385.238 324.023 397.325C340.657 417.623 345.193 428.204 346.489 441.376C347.279 449.4 345.551 458.326 341.305 468.152L336.984 513.067L275.636 536.389" stroke="black" stroke-miterlimit="3" stroke-linecap="square"/>
<path d="M478.096 517.74C470.195 512.267 459.156 512.985 444.979 519.892L378.459 564.301C412.367 556.627 432.528 551.354 438.944 548.481C448.567 544.172 445.219 606.888 444.979 621.036C444.528 647.48 444.267 641.79 445.25 665.016C497.395 664.806 523.262 663.124 522.851 659.971C520.565 642.423 508.07 632.271 485.368 629.516V600.306C488.421 550.733 485.997 523.211 478.096 517.74Z" fill="white" stroke="black" stroke-miterlimit="3" stroke-linecap="square"/>
<path d="M276.01 336.774C273.013 319.998 284.556 303.881 301.771 300.809C318.987 297.735 335.396 308.861 338.394 325.638C341.39 342.416 329.847 358.531 312.632 361.605C295.417 364.678 279.007 353.552 276.01 336.774Z" fill="white" stroke="black" stroke-miterlimit="1.414" stroke-linejoin="round"/>
<path d="M350.671 575.467L361.904 666.815H370.545C364.849 624.178 361.113 593.736 359.312 575.467H350.671Z" fill="white" stroke="black" stroke-miterlimit="3" stroke-linecap="square"/>
<path d="M267.76 578.441L253.935 666.815H262.643L275.537 578.441H267.76Z" fill="white" stroke="black" stroke-miterlimit="3" stroke-linecap="square"/>
<path d="M249.98 376.019C259.961 378.417 263.091 392.424 265.474 402.35C267.062 408.968 271.087 462.573 277.55 563.165L249.341 564.893C241.039 491.668 235.29 441.603 232.092 414.697C230.229 399.021 229.323 390.805 229.373 390.047C230.011 380.41 242.852 374.306 249.98 376.019Z" fill="#C85858" stroke="black" stroke-miterlimit="3" stroke-linecap="square"/>
<path d="M402.137 575.467C399.454 565.671 385.114 565.053 379.533 564.893C373.953 564.732 353.451 567.531 318.027 567.581C298.083 565.895 275.188 563.943 249.341 561.724V594.26C308.872 593.842 349.726 594.356 371.901 595.803C384.821 596.646 393.466 594.586 394.012 594.26C401.772 589.623 404.055 582.462 402.137 575.467Z" fill="#CB6155" stroke="black" stroke-miterlimit="3" stroke-linecap="square"/>
<path d="M293.369 374.338C294.421 378.292 295.089 387.908 295.509 388.687C302.962 402.517 312.467 405.396 324.023 397.325C324.367 397.994 324.367 397.994 324.023 397.325C321.279 391.99 319.168 387.113 317.691 382.692C312.823 368.135 318.086 360.144 317.975 360.184C313.185 361.889 308 362.465 302.422 361.911V367.094C296.146 371.02 293.129 373.435 293.369 374.338Z" fill="white" stroke="black" stroke-miterlimit="3" stroke-linecap="square"/>
<path d="M294.898 290.191C260.669 295.978 265.507 332.472 270.452 346.364C272.021 350.773 273.979 357.795 270.452 367.094C268.1 373.293 262.595 381.067 253.935 390.415C267.759 395.81 277.585 398.113 283.412 397.325C293.514 395.927 295.102 390.301 298.966 382.692C302.829 375.084 309.701 354.264 294.898 346.364C289.266 343.358 290.511 336.993 291.189 334.271C291.867 331.549 294.459 330.136 298.966 330.032C297.004 318.336 302.476 313.975 315.383 316.95C328.014 319.86 335.893 319.57 339.02 316.077C332.424 294.961 317.716 286.332 294.898 290.191Z" fill="black" stroke="black" stroke-miterlimit="3" stroke-linecap="square"/>
<path d="M329.64 334.271C330.833 334.271 331.8 332.724 331.8 330.816C331.8 328.908 330.833 327.361 329.64 327.361C328.447 327.361 327.48 328.908 327.48 330.816C327.48 332.724 328.447 334.271 329.64 334.271Z" fill="black"/>
<path d="M330.072 328.225C329.835 328.209 330.284 327.986 330.072 327.771C329.859 327.556 328.984 327.347 328.789 327.361C326.99 327.487 325.925 327.861 324.404 329.089" stroke="black" stroke-miterlimit="3" stroke-linecap="square"/>
<path d="M331.075 323.518C329.022 322.722 326.94 322.699 324.926 323.042C322.349 323.482 320.179 324.927 318.027 326.497" stroke="black" stroke-miterlimit="3" stroke-linecap="square"/>
<path d="M406.109 481.109L509.797 466.425" stroke="black" stroke-miterlimit="3" stroke-linecap="square"/>
<path d="M509.797 466.425L506.341 285.038" stroke="black" stroke-miterlimit="3" stroke-linecap="square"/>
<path d="M391.42 459.515V473.767" stroke="black" stroke-miterlimit="3" stroke-linecap="square"/>
<path d="M391.42 473.767L406.109 472.749" stroke="black" stroke-miterlimit="3" stroke-linecap="square"/>
<path d="M402.61 300.298L406.109 481.109" stroke="black" stroke-miterlimit="3" stroke-linecap="square"/>
<path d="M506.341 285.038L402.61 300.298" stroke="black" stroke-miterlimit="3" stroke-linecap="square"/>
<path d="M506.341 285.038L387.964 292.668" stroke="black" stroke-miterlimit="3" stroke-linecap="square"/>
<path d="M387.964 292.668L391.42 466.425" stroke="black" stroke-miterlimit="3" stroke-linecap="square"/>
<path d="M306.282 429.284C309.952 428.891 313.918 434.688 315.383 436.194C316.847 437.699 320.783 446.775 324.023 451.741C343.086 480.96 368.432 473.474 400.061 429.284L405.245 423.238V412.009C412.708 406.016 418.757 406.016 423.391 412.009C428.024 418.001 426.008 423.76 417.342 429.284C413.955 436.008 410.787 442.055 407.837 447.423C392.072 476.119 375.306 501.203 342.169 498.384C309.032 495.564 297.335 465.693 298.966 440.513C299.241 436.261 302.613 429.677 306.282 429.284Z" fill="white" stroke="black" stroke-miterlimit="3" stroke-linecap="square"/>
<path d="M116.93 608.14L86.4382 608.759L95.0789 666.815H153.835L162.476 607.216L116.93 608.14Z" fill="#604343" stroke="black" stroke-miterlimit="3" stroke-linecap="square"/>
<path d="M346.489 447.423C358.778 458.939 373.467 449.15 390.556 418.055" stroke="black" stroke-width="0.9" stroke-miterlimit="3" stroke-linecap="square"/>
<path d="M91.6226 608.759C72.8508 573.679 51.2354 555.998 49.2835 577.849C47.3316 599.699 54.3625 625.682 55.332 598.579C56.3014 571.475 60.2675 568.344 75.2054 567.484C84.7066 566.937 95.4703 570.877 100.263 591.398" fill="#156A4A"/>
<path d="M91.6226 608.759C72.8508 573.679 51.2354 555.998 49.2835 577.849C47.3316 599.699 54.3625 625.682 55.332 598.579C56.3014 571.475 60.2675 568.344 75.2054 567.484C84.7066 566.937 95.4703 570.877 100.263 591.398" stroke="black" stroke-miterlimit="3" stroke-linecap="square"/>
<path d="M100.263 591.398C95.4149 581.976 91.3357 574.113 87.7835 567.581C72.2235 538.965 66.7721 535.871 51.0116 538.98C35.252 542.09 37.7137 555.418 37.1866 557.119C36.6596 558.819 42.7555 547.351 46.6913 534.661C51.5335 519.049 75.8699 515.028 89.8945 521.705C99.8683 526.453 107.262 536.5 108.04 537.253C115.167 544.149 118.335 557.681 117.544 577.849C118.654 591.098 118.654 591.098 117.544 577.849C113.346 527.718 121.698 494.896 142.602 479.381C175.539 461.602 165.521 469.244 152.107 506.158C139.004 542.215 143.554 571.021 144.33 586.486C145.292 589.041 145.292 589.686 144.33 588.423C147.345 540.149 157.138 517.91 173.709 521.705C198.565 527.398 195.276 575.134 198.766 574.68C202.255 574.227 206.734 535.776 198.766 538.98C181.173 546.054 167.348 568.8 157.291 607.216L91.6226 608.759L81.2538 591.398" fill="#156A4A"/>
<path d="M100.263 591.398C95.4149 581.976 91.3357 574.113 87.7835 567.581C72.2235 538.965 66.7721 535.871 51.0116 538.98C35.252 542.09 37.7137 555.418 37.1866 557.119C36.6596 558.819 42.7555 547.351 46.6913 534.661C51.5335 519.049 75.8699 515.028 89.8945 521.705C99.8683 526.453 107.262 536.5 108.04 537.253C115.167 544.149 118.335 557.681 117.544 577.849C118.654 591.098 118.654 591.098 117.544 577.849C113.346 527.718 121.698 494.896 142.602 479.381C175.539 461.602 165.521 469.244 152.107 506.158C139.004 542.215 143.554 571.021 144.33 586.486C145.292 589.041 145.292 589.686 144.33 588.423C147.345 540.149 157.138 517.91 173.709 521.705C198.565 527.398 195.276 575.134 198.766 574.68C202.255 574.227 206.734 535.776 198.766 538.98C181.173 546.054 167.348 568.8 157.291 607.216L91.6226 608.759L81.2538 591.398" stroke="black" stroke-miterlimit="3" stroke-linecap="square"/>
<path d="M263.445 319.587C271.235 319.587 277.55 312.807 277.55 304.442C277.55 296.077 271.235 289.296 263.445 289.296C255.655 289.296 249.34 296.077 249.34 304.442C249.34 312.807 255.655 319.587 263.445 319.587Z" fill="black"/>
</svg>
