<svg width="1237" height="305" viewBox="0 0 1237 305" fill="none" xmlns="http://www.w3.org/2000/svg">
<path d="M1 282.683L19.9064 289.197C38.8128 295.711 75.7662 308.739 113.579 302.225C151.392 295.711 188.345 268.725 226.158 268.725C263.111 268.725 300.924 295.711 338.737 295.711C375.69 295.711 413.503 268.725 451.316 222.198C488.269 174.74 526.082 107.74 563.895 88.199C600.848 67.7269 638.661 94.7128 675.614 121.699C713.427 148.685 751.24 174.74 788.193 161.712C826.006 148.685 865.331 148.685 902.284 161.712C940.097 175.67 976.398 201.726 1013.35 208.24C1051.16 215.684 1046.13 215.684 1083.95 161.712C1121.76 107.74 1213.42 182.399 1236 182.399" stroke="#EFEFEF"/>
<path d="M1 202.683L19.9217 209.197C38.8434 215.711 75.8267 228.739 113.67 222.225C151.514 215.711 188.497 188.725 226.34 188.725C263.324 188.725 301.167 215.711 339.01 215.711C375.994 215.711 413.837 188.725 451.68 142.198C488.664 94.7398 526.507 27.7405 564.351 8.19898C601.334 -12.2731 639.177 14.7128 676.161 41.6987C714.004 68.6845 751.847 94.7398 788.831 81.7122C826.674 68.6845 866.031 68.6845 903.014 81.7122C940.857 95.6704 977.188 121.726 1014.17 128.24C1052.01 135.684 1046.98 135.684 1084.82 81.7122C1122.67 27.7405 1214.4 102.399 1237 102.399" stroke="#EFEFEF"/>
<path d="M1 141.667L19.8911 148.186C38.7822 154.705 75.7056 167.742 113.488 161.223C151.27 154.705 188.193 127.699 225.976 127.699C262.899 127.699 300.681 154.705 338.463 154.705C375.387 154.705 413.169 127.699 450.951 81.1367C487.875 33.6435 501.244 40.1622 539.026 20.6061C575.949 0.118829 638.991 -6.39983 675.914 20.6061C713.696 47.6121 750.632 33.6435 787.556 20.6062C825.338 7.56879 864.631 7.56879 901.554 20.6062C939.336 34.5748 975.608 60.6495 1012.53 67.1682C1050.31 74.6181 1045.29 74.6181 1083.07 20.6062C1120.85 -33.4058 1212.44 41.3082 1235 41.3082" stroke="#EFEFEF"/>
</svg>
