<svg width="30" height="28" viewBox="0 0 30 28" fill="none" xmlns="http://www.w3.org/2000/svg">
<path d="M3.77511 0C1.69083 0 0 1.47674 0 3.30012C0 5.12351 1.68946 6.63442 3.77232 6.63442C5.85518 6.63442 7.54743 5.12351 7.54743 3.30012C7.54743 1.47799 5.8594 0 3.77511 0ZM22.1931 8.74825C19.0231 8.74825 17.2093 10.1985 16.3393 11.6407H16.2472V9.13636H10V27.4945H16.5095V18.407C16.5095 16.0124 16.7161 13.6984 20.1032 13.6984C23.4418 13.6984 23.4905 16.4287 23.4905 18.5583V27.4945H29.9916H30V17.4111C30 12.4771 28.7874 8.74825 22.1931 8.74825ZM0.518973 9.13636V27.4945H7.03404V9.13636H0.518973Z" fill="#FAFAFA" fill-opacity="0.9"/>
</svg>
